<svg width="19" height="19" viewBox="0 0 19 19" fill="none" xmlns="http://www.w3.org/2000/svg">
<g clip-path="url(#clip0_748_12507)">
<path d="M15.0417 18.9997H3.95833C1.77571 18.9997 0 17.2239 0 15.0413V7.69782C0 6.3797 0.652333 5.15261 1.74483 4.41636L7.28571 0.676531C8.63075 -0.230719 10.3693 -0.230719 11.7143 0.676531L17.256 4.41636C18.3477 5.15261 19 6.37891 19 7.69782V15.0413C19 17.2239 17.2243 18.9997 15.0417 18.9997ZM9.5 1.58061C9.03767 1.58061 8.57533 1.71678 8.17158 1.98991L2.62992 5.72895C1.97442 6.1707 1.58333 6.90616 1.58333 7.69703V15.0405C1.58333 16.3499 2.64892 17.4155 3.95833 17.4155H15.0417C16.3511 17.4155 17.4167 16.3499 17.4167 15.0405V7.69782C17.4167 6.90695 17.0256 6.1707 16.3709 5.72974L10.8284 1.98991C10.4247 1.71678 9.96233 1.58061 9.5 1.58061Z" fill="#EDEDED"/>
</g>
<g clip-path="url(#clip1_748_12507)">
<path d="M14.4259 17.9448H4.57406C2.63395 17.9448 1.05554 16.3664 1.05554 14.4263V7.89872C1.05554 6.72705 1.63539 5.63631 2.6065 4.98186L7.53173 1.65757C8.72732 0.851123 10.2727 0.851123 11.4682 1.65757L16.3942 4.98186C17.3646 5.63631 17.9444 6.72635 17.9444 7.89872V14.4263C17.9444 16.3664 16.366 17.9448 14.4259 17.9448ZM9.49999 2.4612C9.08902 2.4612 8.67806 2.58223 8.31917 2.82501L3.39325 6.1486C2.81058 6.54127 2.46295 7.19501 2.46295 7.89801V14.4256C2.46295 15.5895 3.41013 16.5367 4.57406 16.5367H14.4259C15.5898 16.5367 16.537 15.5895 16.537 14.4256V7.89872C16.537 7.19572 16.1894 6.54127 15.6074 6.14931L10.6808 2.82501C10.3219 2.58223 9.91095 2.4612 9.49999 2.4612Z" fill="#141414"/>
</g>
<defs>
<clipPath id="clip0_748_12507">
<rect width="19" height="19" fill="white"/>
</clipPath>
<clipPath id="clip1_748_12507">
<rect width="16.8889" height="16.8889" fill="white" transform="translate(1.05554 1.05566)"/>
</clipPath>
</defs>
</svg>
