<svg width="20" height="20" viewBox="0 0 20 20" fill="none" xmlns="http://www.w3.org/2000/svg">
<path fill-rule="evenodd" clip-rule="evenodd" d="M13.3936 3.3534C12.5886 2.53452 11.4524 2.08301 10.1266 2.08301C8.80089 2.08301 7.66475 2.53452 6.8597 3.3534C6.05527 4.17164 5.61367 5.32377 5.61367 6.66634C5.61367 8.47384 6.40065 9.63884 7.37464 10.3382C7.56393 10.474 7.75956 10.5919 7.95691 10.6936C6.86843 10.9927 5.98462 11.5141 5.26505 12.1608C4.12724 13.1834 3.42203 14.4991 2.94692 15.6772C2.86085 15.8906 2.96408 16.1333 3.17751 16.2194C3.39092 16.3055 3.6337 16.2023 3.71977 15.9888C4.17199 14.8675 4.81786 13.6832 5.82208 12.7806C6.81622 11.8872 8.18338 11.2497 10.1266 11.2497C11.9433 11.2497 13.2548 11.8068 14.2283 12.6063C15.21 13.4124 15.8711 14.4843 16.3447 15.544C16.6607 16.251 16.1061 17.083 15.2356 17.083H5.62071C5.39059 17.083 5.20404 17.2696 5.20404 17.4997C5.20404 17.7298 5.39059 17.9163 5.62071 17.9163H15.2356C16.6123 17.9163 17.7066 16.5487 17.1056 15.204C16.6026 14.079 15.8753 12.8804 14.7572 11.9623C14.0936 11.4173 13.3002 10.9778 12.3502 10.7086C12.8583 10.4277 13.276 10.0548 13.6083 9.63226C14.3274 8.71801 14.6396 7.58314 14.6396 6.66634C14.6396 5.32377 14.1981 4.17164 13.3936 3.3534ZM12.7994 3.93762C13.4286 4.57771 13.8063 5.50892 13.8063 6.66634C13.8063 7.41621 13.5451 8.36467 12.9533 9.11709C12.3729 9.85509 11.4672 10.4163 10.1266 10.4163C9.58447 10.4163 8.64906 10.2273 7.86067 9.66117C7.09373 9.11051 6.44701 8.19219 6.44701 6.66634C6.44701 5.50892 6.82467 4.57771 7.45395 3.93762C8.08261 3.29816 8.99456 2.91634 10.1266 2.91634C11.2587 2.91634 12.1707 3.29816 12.7994 3.93762Z" fill="white"/>
</svg>
